<?xml version="1.0" encoding="UTF-8" standalone="no"?>
<svg
   xmlns:dc="http://purl.org/dc/elements/1.1/"
   xmlns:cc="http://creativecommons.org/ns#"
   xmlns:rdf="http://www.w3.org/1999/02/22-rdf-syntax-ns#"
   xmlns:svg="http://www.w3.org/2000/svg"
   xmlns="http://www.w3.org/2000/svg"
   xmlns:xlink="http://www.w3.org/1999/xlink"
   xmlns:sodipodi="http://sodipodi.sourceforge.net/DTD/sodipodi-0.dtd"
   xmlns:inkscape="http://www.inkscape.org/namespaces/inkscape"
   height="256"
   viewBox="0 0 114.5 128"
   width="229"
   version="1.1"
   id="svg99"
   sodipodi:docname="cordova.svg"
   inkscape:version="0.92.4 (5da689c313, 2019-01-14)">
  <metadata
     id="metadata105">
    <rdf:RDF>
      <cc:Work
         rdf:about="">
        <dc:format>image/svg+xml</dc:format>
        <dc:type
           rdf:resource="http://purl.org/dc/dcmitype/StillImage" />
        <dc:title></dc:title>
      </cc:Work>
    </rdf:RDF>
  </metadata>
  <defs
     id="defs103" />
  <sodipodi:namedview
     pagecolor="#ffffff"
     bordercolor="#666666"
     borderopacity="1"
     objecttolerance="10"
     gridtolerance="10"
     guidetolerance="10"
     inkscape:pageopacity="0"
     inkscape:pageshadow="2"
     inkscape:window-width="1850"
     inkscape:window-height="1016"
     id="namedview101"
     showgrid="false"
     inkscape:zoom="1.3037281"
     inkscape:cx="368.18445"
     inkscape:cy="144.34362"
     inkscape:window-x="70"
     inkscape:window-y="27"
     inkscape:window-maximized="1"
     inkscape:current-layer="svg99" />
  <linearGradient
     xlink:href="none"
     id="a">
    <stop
       offset="0"
       stop-color="#24303a"
       id="stop2" />
    <stop
       offset="1"
       stop-color="#394958"
       id="stop4" />
  </linearGradient>
  <linearGradient
     xlink:href="none"
     gradientUnits="userSpaceOnUse"
     gradientTransform="scale(1.3005759,0.76889016)"
     y2="51255.906"
     y1="106653.22"
     x2="15041.137"
     x1="101026.04"
     id="b">
    <stop
       offset="0"
       stop-color="#acacac"
       id="stop7" />
    <stop
       offset="1"
       stop-color="#e9e9e9"
       id="stop9" />
  </linearGradient>
  <filter
     id="c"
     height="1.107"
     width="1.402"
     x="-0.20100001"
     y="-0.054000001"
     style="color-interpolation-filters:sRGB">
    <feGaussianBlur
       stdDeviation="1.11"
       id="feGaussianBlur12" />
  </filter>
  <filter
     id="d"
     height="1.222"
     width="1.83"
     x="-0.41499999"
     y="-0.111"
     style="color-interpolation-filters:sRGB">
    <feGaussianBlur
       stdDeviation="2.293"
       id="feGaussianBlur15" />
  </filter>
  <radialGradient
     xlink:href="none"
     gradientUnits="userSpaceOnUse"
     fy="-26579.33"
     fx="28589.428"
     r="1292.7474"
     gradientTransform="scale(0.41471364,2.4113024)"
     cy="-26579.33"
     cx="28589.428"
     id="e">
    <stop
       offset="0"
       stop-color="#25303b"
       id="stop18" />
    <stop
       offset="1"
       stop-color="#25303b"
       stop-opacity="0"
       id="stop20" />
  </radialGradient>
  <linearGradient
     id="f"
     x1="26740.688"
     x2="25502.65"
     xlink:href="#a"
     y1="24774.475"
     y2="10068.391"
     gradientTransform="scale(0.4131802,2.4202515)"
     gradientUnits="userSpaceOnUse" />
  <linearGradient
     id="g"
     x1="11083.603"
     x2="12323.476"
     xlink:href="#a"
     y1="24811.512"
     y2="10083.613"
     gradientTransform="scale(0.41469263,2.4114246)"
     gradientUnits="userSpaceOnUse" />
  <linearGradient
     xlink:href="none"
     gradientUnits="userSpaceOnUse"
     gradientTransform="scale(1.6493339,0.60630538)"
     y2="28658.08"
     y1="23055.756"
     x2="19767.734"
     x1="75614.289"
     id="h">
    <stop
       offset="0"
       stop-color="#e5e5e5"
       id="stop25" />
    <stop
       offset="1"
       stop-color="#fff"
       id="stop27" />
  </linearGradient>
  <linearGradient
     xlink:href="none"
     gradientUnits="userSpaceOnUse"
     gradientTransform="scale(1.0797719,0.92612153)"
     y2="44060.91"
     y1="26440.068"
     x2="25246.594"
     x1="25246.594"
     id="i">
    <stop
       offset="0"
       stop-color="#fff"
       id="stop30" />
    <stop
       offset=".5"
       stop-color="#fff"
       stop-opacity=".532"
       id="stop32" />
    <stop
       offset="1"
       stop-color="#fff"
       stop-opacity="0"
       id="stop34" />
  </linearGradient>
  <linearGradient
     xlink:href="none"
     gradientUnits="userSpaceOnUse"
     gradientTransform="scale(1.5273748,0.65471813)"
     y2="12513.842"
     y1="18739.508"
     x2="18995.33"
     x1="18995.33"
     id="j">
    <stop
       offset="0"
       stop-color="#fff"
       id="stop37" />
    <stop
       offset="1"
       stop-color="#fff"
       stop-opacity="0"
       id="stop39" />
  </linearGradient>
  <filter
     id="k"
     height="1.715"
     width="1.262"
     x="-0.131"
     y="-0.35800001"
     style="color-interpolation-filters:sRGB">
    <feGaussianBlur
       stdDeviation="19.201"
       id="feGaussianBlur42" />
  </filter>
  <g
     id="g939"
     transform="matrix(4.0005308,0,0,4.0005308,-6.9058977,-384.0551)">
    <path
       style="fill-opacity:0.56999966;fill-rule:evenodd;filter:url(#k)"
       inkscape:connector-curvature="0"
       id="path45"
       transform="matrix(0.06275611,0,0,0.05559863,1.4976973,101.35202)"
       d="M 407.2,433.212 326.64,304.352 H 135.14 L 54.985,433.194 Z" />
    <g
       id="g97"
       transform="matrix(0.08081671,0,0,0.08081671,-2.6760835,91.082268)">
      <g
         style="fill-rule:evenodd"
         id="g71">
        <path
           style="fill:#7f8082"
           inkscape:connector-curvature="0"
           id="path47"
           d="m 341.153,349.75 -23.105,48.268 -15.9,-60.104 z m -212.746,0 15.73,48.268 15.9,-60.104 z" />
        <path
           style="fill:url(#b);stroke:#d6d6d6;stroke-linejoin:round"
           inkscape:connector-curvature="0"
           id="path49"
           d="m 54.985,190.194 -0.012,0.018 32.8,207.807 h 56.373 l -4.605,-48.268 h 28.924 l 3.684,48.268 h 118.1 l 3.684,-48.268 h 28.74 l -4.605,48.268 h 56.74 L 407.2,190.194 Z" />
        <path
           style="fill:url(#e)"
           inkscape:connector-curvature="0"
           id="path51"
           d="m 135.558,317.94 16.956,-63.528 -1.192,-128.3 -31.8,64.093 z" />
        <path
           style="fill:#293441"
           inkscape:connector-curvature="0"
           id="path53"
           d="m 257.328,113.532 h 70.27 l -1.443,155.314 H 251.9 Z m -50.828,0.098 -68.445,0.042 1.622,154.622 h 69.684 z" />
        <path
           style="fill:#2d3948"
           inkscape:connector-curvature="0"
           id="path55"
           d="m 145.14,254.4 -9.58,63.53 h 191.625 l -11.4,-63.076 z" />
        <path
           style="fill:url(#f)"
           inkscape:connector-curvature="0"
           id="path57"
           d="m 327.184,317.94 -16.64,-63.077 0.625,-129.17 32.195,64.496 z" />
        <path
           style="fill:url(#g)"
           inkscape:connector-curvature="0"
           id="path59"
           d="m 135.705,317.94 16.8,-63.53 -1.192,-128.3 -31.797,64.1 z" />
        <path
           style="fill:#2d3b48"
           inkscape:connector-curvature="0"
           id="path61"
           d="m 199.316,149.428 6.327,134.88 h 49.285 l 7.94,-134.88 z" />
        <path
           style="fill:url(#h);stroke:#d6d6d6;stroke-linejoin:round"
           inkscape:connector-curvature="0"
           id="path63"
           d="M 407.2,190.194 326.65,61.35 H 135.15 L 54.985,190.194 h 64.54 L 151.15,126.35 h 52 l -3.835,23.077 h 63.55 l -3.36,-23.776 H 311.3 l 32.06,64.543 z" />
        <path
           style="opacity:0.45;fill:#363f49"
           inkscape:connector-curvature="0"
           id="path65"
           d="m 259.508,125.65 52.235,0.043 31.62,64.5 -16.18,127.746 h -121.54 l 62.822,-127.746 z" />
        <path
           style="opacity:0.3;fill:url(#i)"
           inkscape:connector-curvature="0"
           id="path67"
           d="M 268.465,190.194 205.643,317.94 H 135.56 L 119.525,190.195 Z" />
        <path
           style="opacity:0.2;fill:url(#j)"
           inkscape:connector-curvature="0"
           id="path69"
           d="m 151.15,126.35 h 52 l -3.835,23.077 h 63.55 l 5.598,40.767 h -148.94 z" />
      </g>
      <g
         id="g81"
         transform="matrix(0.899979,0,0,0.977746,-16.344231,563.1165)">
        <ellipse
           style="opacity:0.8;fill:#05f0ff;filter:url(#d)"
           id="ellipse73"
           transform="matrix(1.499289,0,0,1.307739,-75.688852,99.470993)"
           ry="24.805"
           rx="6.6300001"
           cy="-325.39899"
           cx="272.59299" />
        <g
           style="stroke:#06effe;filter:url(#c)"
           id="g79">
          <ellipse
             style="opacity:0.9;fill:#ffffff;stroke-width:0.91799998"
             id="ellipse75"
             transform="matrix(1.165326,0,0,1.157833,-3.956438,51.930291)"
             ry="24.805"
             rx="6.6300001"
             cy="-326.05399"
             cx="289.15799" />
          <ellipse
             style="opacity:0.9;fill:#feffff;stroke-width:0.954"
             id="ellipse77"
             transform="matrix(1.165326,0,0,1.070709,-3.956438,23.603105)"
             ry="24.805"
             rx="6.6300001"
             cy="-326.05399"
             cx="289.15799" />
        </g>
      </g>
      <g
         id="g91"
         transform="matrix(0.899979,0,0,0.977746,-117.53684,567.59263)">
        <ellipse
           style="opacity:0.8;fill:#05f0ff;filter:url(#d)"
           id="ellipse83"
           transform="matrix(1.499289,0,0,1.307739,-75.688852,99.470993)"
           ry="24.805"
           rx="6.6300001"
           cy="-325.39899"
           cx="272.59299" />
        <g
           style="stroke:#06effe;filter:url(#c)"
           id="g89">
          <ellipse
             style="opacity:0.9;fill:#ffffff;stroke-width:0.91799998"
             id="ellipse85"
             transform="matrix(1.165326,0,0,1.157833,-3.956438,51.930291)"
             ry="24.805"
             rx="6.6300001"
             cy="-326.05399"
             cx="289.15799" />
          <ellipse
             style="opacity:0.9;fill:#feffff;stroke-width:0.954"
             id="ellipse87"
             transform="matrix(1.165326,0,0,1.070709,-3.956438,23.603105)"
             ry="24.805"
             rx="6.6300001"
             cy="-326.05399"
             cx="289.15799" />
        </g>
      </g>
      <path
         style="fill:none;stroke:#d6d6d6;stroke-linejoin:round"
         inkscape:connector-curvature="0"
         id="path93"
         d="m 151.15,126.35 h 52 l -3.835,23.077 h 63.55 l -3.36,-23.776 52.235,0.043 31.62,64.5 -16.18,127.746 H 135.558 L 119.523,190.195 Z" />
      <path
         style="opacity:0.34299999;fill:#ffffff;fill-rule:evenodd;stroke:#ffffff"
         inkscape:connector-curvature="0"
         id="path95"
         d="M 342.836,190.194 H 119.366" />
    </g>
  </g>
</svg>
