<?xml version="1.0" encoding="UTF-8" standalone="no"?>
<svg
   xmlns:dc="http://purl.org/dc/elements/1.1/"
   xmlns:cc="http://creativecommons.org/ns#"
   xmlns:rdf="http://www.w3.org/1999/02/22-rdf-syntax-ns#"
   xmlns:svg="http://www.w3.org/2000/svg"
   xmlns="http://www.w3.org/2000/svg"
   height="256"
   width="239"
   id="svg12"
   version="1.1"
   aria-hidden="true"
   viewBox="0 0 239 256"
   class="site-header-icon">
  <metadata
     id="metadata18">
    <rdf:RDF>
      <cc:Work
         rdf:about="">
        <dc:format>image/svg+xml</dc:format>
        <dc:type
           rdf:resource="http://purl.org/dc/dcmitype/StillImage" />
        <dc:title></dc:title>
      </cc:Work>
    </rdf:RDF>
  </metadata>
  <defs
     id="defs16" />
  <g
     id="g835">
    <path
       style="color:#000000;font-style:normal;font-variant:normal;font-weight:normal;font-stretch:normal;font-size:medium;line-height:normal;font-family:sans-serif;font-variant-ligatures:normal;font-variant-position:normal;font-variant-caps:normal;font-variant-numeric:normal;font-variant-alternates:normal;font-feature-settings:normal;text-indent:0;text-align:start;text-decoration:none;text-decoration-line:none;text-decoration-style:solid;text-decoration-color:#000000;letter-spacing:normal;word-spacing:normal;text-transform:none;writing-mode:lr-tb;direction:ltr;text-orientation:mixed;dominant-baseline:auto;baseline-shift:baseline;text-anchor:start;white-space:normal;shape-padding:0;clip-rule:nonzero;display:inline;overflow:visible;visibility:visible;opacity:1;isolation:auto;mix-blend-mode:normal;color-interpolation:sRGB;color-interpolation-filters:linearRGB;solid-color:#000000;solid-opacity:1;vector-effect:none;fill:#2b2e3b;fill-opacity:1;fill-rule:evenodd;stroke:none;stroke-width:8.29924965;stroke-linecap:butt;stroke-linejoin:miter;stroke-miterlimit:4;stroke-dasharray:none;stroke-dashoffset:0;stroke-opacity:1;color-rendering:auto;image-rendering:auto;shape-rendering:auto;text-rendering:auto;enable-background:accumulate"
       d="M 61.394531,52.476562 C 54.130805,52.450646 47.336513,53.159324 41.150391,54.636719 28.778147,57.591509 18.68401,63.784188 13.023438,73.496094 4.6240539,87.907006 7.8107525,106.5094 18.496094,124.9707 l 7.18164,-4.1582 C 15.835298,103.8075 13.839907,88.576467 20.193359,77.675781 24.475123,70.329513 32.232535,65.299173 43.078125,62.708984 c 10.84559,-2.590188 24.62051,-2.580941 39.900391,0.175782 l 1.474609,-8.167969 C 76.391625,53.26238 68.658257,52.502479 61.394531,52.476562 Z m -19.230469,90.345708 -6.113281,5.61328 c 13.322598,14.50243 30.861907,28.47796 51.503907,40.2832 24.602942,14.07051 49.684322,22.82058 71.894532,26.00977 20.71815,2.97494 38.9798,1.1592 52.11523,-6.35938 2.77054,1.89706 6.1102,3.02149 9.69922,3.02148 9.42121,0 17.18555,-7.6667 17.18555,-17.0625 0,-9.39581 -7.76434,-17.06445 -17.18555,-17.06445 -9.42121,0 -17.18554,7.66864 -17.18555,17.06445 0,2.77076 0.73782,5.35212 1.93165,7.66993 -10.75173,5.46451 -26.70285,7.19762 -45.38086,4.51562 -20.95926,-3.00956 -45.17895,-11.40234 -68.955082,-25 -19.948298,-11.4085 -36.847231,-24.90749 -49.509766,-38.6914 z m 179.099608,42.74218 c 4.97828,0 8.88672,3.89583 8.88672,8.76367 0,4.86783 -3.90845,8.76368 -8.88672,8.76368 -4.97828,0 -8.88672,-3.89585 -8.88672,-8.76368 0,-4.86784 3.90844,-8.76367 8.88672,-8.76367 z"
       id="path2" />
    <path
       style="color:#000000;font-style:normal;font-variant:normal;font-weight:normal;font-stretch:normal;font-size:medium;line-height:normal;font-family:sans-serif;font-variant-ligatures:normal;font-variant-position:normal;font-variant-caps:normal;font-variant-numeric:normal;font-variant-alternates:normal;font-feature-settings:normal;text-indent:0;text-align:start;text-decoration:none;text-decoration-line:none;text-decoration-style:solid;text-decoration-color:#000000;letter-spacing:normal;word-spacing:normal;text-transform:none;writing-mode:lr-tb;direction:ltr;text-orientation:mixed;dominant-baseline:auto;baseline-shift:baseline;text-anchor:start;white-space:normal;shape-padding:0;clip-rule:nonzero;display:inline;overflow:visible;visibility:visible;opacity:1;isolation:auto;mix-blend-mode:normal;color-interpolation:sRGB;color-interpolation-filters:linearRGB;solid-color:#000000;solid-opacity:1;vector-effect:none;fill:#2b2e3b;fill-opacity:1;fill-rule:evenodd;stroke:none;stroke-width:8.29924965;stroke-linecap:butt;stroke-linejoin:miter;stroke-miterlimit:4;stroke-dasharray:none;stroke-dashoffset:0;stroke-opacity:1;color-rendering:auto;image-rendering:auto;shape-rendering:auto;text-rendering:auto;enable-background:accumulate"
       d="m 178.94336,52.666016 -0.10547,8.298828 c 19.32166,0.24891 33.30527,6.162587 39.55469,16.884765 4.27284,7.33097 4.79293,16.444762 1.66211,26.998051 -3.13082,10.55328 -9.98365,22.32679 -19.98242,34.02734 l 6.31054,5.39258 c 10.56097,-12.35843 18.04452,-24.97838 21.62891,-37.06055 3.58439,-12.082163 3.19956,-23.845427 -2.44922,-33.537108 -8.26184,-14.174916 -25.64094,-20.733656 -46.61914,-21.003906 z m -29.73047,3.189453 C 129.71439,59.993697 108.50899,68.094608 87.654297,80.021484 62.325221,94.507269 41.667614,112.24786 27.742188,130.25 14.67214,147.14635 7.4370084,164.33316 8.5527344,179.67383 3.475073,182.64514 0,188.07507 0,194.32812 c 0,9.3958 7.7643317,17.0625 17.185547,17.0625 9.421214,10e-6 17.185547,-7.6667 17.185547,-17.0625 0,-9.39581 -7.764337,-17.06445 -17.185547,-17.06445 -0.166309,0 -0.321086,0.0441 -0.486328,0.0488 -0.167646,-11.97375 5.892885,-26.84232 17.607422,-41.98633 C 47.41106,118.38539 67.297533,101.22553 91.775391,87.226562 111.92924,75.700505 132.39647,67.909215 150.93555,63.974609 Z M 17.185547,185.56445 c 4.97828,0 8.886719,3.89583 8.886719,8.76367 0,4.86783 -3.908443,8.76368 -8.886719,8.76368 -4.978279,0 -8.8867189,-3.89585 -8.8867189,-8.76368 0,-4.86785 3.9084369,-8.76367 8.8867189,-8.76367 z"
       id="path4" />
    <path
       style="color:#000000;font-style:normal;font-variant:normal;font-weight:normal;font-stretch:normal;font-size:medium;line-height:normal;font-family:sans-serif;font-variant-ligatures:normal;font-variant-position:normal;font-variant-caps:normal;font-variant-numeric:normal;font-variant-alternates:normal;font-feature-settings:normal;text-indent:0;text-align:start;text-decoration:none;text-decoration-line:none;text-decoration-style:solid;text-decoration-color:#000000;letter-spacing:normal;word-spacing:normal;text-transform:none;writing-mode:lr-tb;direction:ltr;text-orientation:mixed;dominant-baseline:auto;baseline-shift:baseline;text-anchor:start;white-space:normal;shape-padding:0;clip-rule:nonzero;display:inline;overflow:visible;visibility:visible;opacity:1;isolation:auto;mix-blend-mode:normal;color-interpolation:sRGB;color-interpolation-filters:linearRGB;solid-color:#000000;solid-opacity:1;vector-effect:none;fill:#2b2e3b;fill-opacity:1;fill-rule:evenodd;stroke:none;stroke-width:8.29924965;stroke-linecap:butt;stroke-linejoin:miter;stroke-miterlimit:4;stroke-dasharray:none;stroke-dashoffset:0;stroke-opacity:1;color-rendering:auto;image-rendering:auto;shape-rendering:auto;text-rendering:auto;enable-background:accumulate"
       d="m 119.34375,0 c -9.42122,0 -17.1875,7.6666934 -17.1875,17.0625 0,9.395807 7.76628,17.0625 17.1875,17.0625 6.30843,0 11.8116,-3.475914 14.80078,-8.568359 10.41258,6.174101 20.17781,18.946903 27.38281,36.52539 8.02483,19.578658 12.92188,44.835629 12.92188,72.374999 0,22.44334 -3.24469,43.36806 -8.79688,60.94336 l 7.91407,2.5 c 5.84141,-18.49084 9.18164,-40.20239 9.18164,-63.44336 0,-28.51812 -5.0187,-54.73101 -13.54102,-75.523436 C 161.19219,39.379291 150.083,24.5369 136.49219,17.416016 c 0.003,-0.120435 0.0371,-0.232495 0.0371,-0.353516 C 136.5293,7.6666973 128.76497,0 119.34375,0 Z m 0,8.2988281 c 4.97828,0 8.88672,3.8958279 8.88672,8.7636719 0,4.867845 -3.90844,8.763672 -8.88672,8.763672 -4.97828,0 -8.88672,-3.895831 -8.88672,-8.763672 0,-4.86784 3.90844,-8.7636719 8.88672,-8.7636719 z M 75.039062,201.32812 l -7.804687,2.82227 c 5.523152,15.27714 12.821226,28.03803 21.59375,37.16992 C 97.600649,250.45221 108.05976,256 119.34375,256 c 16.35459,0 30.71034,-11.45447 41.41406,-29.0918 l -7.09375,-4.30664 c -9.83274,16.20216 -21.87554,25.09961 -34.32031,25.09961 -8.58637,0 -16.85559,-4.14076 -24.53125,-12.13086 -7.675655,-7.99009 -14.546282,-19.78378 -19.773438,-34.24219 z"
       id="path6" />
    <path
       style="color:#000000;font-style:normal;font-variant:normal;font-weight:normal;font-stretch:normal;font-size:medium;line-height:normal;font-family:sans-serif;font-variant-ligatures:normal;font-variant-position:normal;font-variant-caps:normal;font-variant-numeric:normal;font-variant-alternates:normal;font-feature-settings:normal;text-indent:0;text-align:start;text-decoration:none;text-decoration-line:none;text-decoration-style:solid;text-decoration-color:#000000;letter-spacing:normal;word-spacing:normal;text-transform:none;writing-mode:lr-tb;direction:ltr;text-orientation:mixed;dominant-baseline:auto;baseline-shift:baseline;text-anchor:start;white-space:normal;shape-padding:0;clip-rule:nonzero;display:inline;overflow:visible;visibility:visible;opacity:1;isolation:auto;mix-blend-mode:normal;color-interpolation:sRGB;color-interpolation-filters:linearRGB;solid-color:#000000;solid-opacity:1;vector-effect:none;fill:#2b2e3b;fill-opacity:1;fill-rule:evenodd;stroke:none;stroke-width:8.29924965;stroke-linecap:butt;stroke-linejoin:miter;stroke-miterlimit:4;stroke-dasharray:none;stroke-dashoffset:0;stroke-opacity:1;color-rendering:auto;image-rendering:auto;shape-rendering:auto;text-rendering:auto;enable-background:accumulate"
       d="m 119.17188,118.49805 c -1.06308,0.01 -2.13854,0.12706 -3.21485,0.35742 h -0.002 c -8.60816,1.846 -14.18907,10.39438 -12.32031,18.97851 v 0.002 c 1.87586,8.58313 10.48329,14.06555 19.09375,12.22265 h 0.002 c 8.60792,-1.84595 14.19307,-10.39474 12.32031,-18.98047 v -0.002 c -1.64138,-7.51024 -8.43736,-12.64612 -15.8789,-12.57812 z m 1.63671,8.41992 c 2.98726,0.548 5.45145,2.80506 6.13477,5.93164 0.90748,4.16546 -1.68839,8.17919 -5.95313,9.09375 -4.26063,0.91081 -8.33321,-1.70947 -9.24609,-5.875 -0.90719,-4.16716 1.68514,-8.18223 5.94922,-9.09766 1.06572,-0.22809 2.11948,-0.2354 3.11523,-0.0527 z"
       id="path8" />
  </g>
</svg>
