<?xml version="1.0" encoding="UTF-8" standalone="no"?>
<!-- Generator: Adobe Illustrator 15.0.1, SVG Export Plug-In . SVG Version: 6.00 Build 0)  -->

<svg
   xmlns:dc="http://purl.org/dc/elements/1.1/"
   xmlns:cc="http://creativecommons.org/ns#"
   xmlns:rdf="http://www.w3.org/1999/02/22-rdf-syntax-ns#"
   xmlns:svg="http://www.w3.org/2000/svg"
   xmlns="http://www.w3.org/2000/svg"
   xmlns:sodipodi="http://sodipodi.sourceforge.net/DTD/sodipodi-0.dtd"
   xmlns:inkscape="http://www.inkscape.org/namespaces/inkscape"
   version="1.1"
   x="0px"
   y="0px"
   width="226"
   height="256"
   viewBox="0 0 226 256"
   enable-background="new 0 0 2000 2000"
   xml:space="preserve"
   id="svg18"
   sodipodi:docname="html5.svg"
   inkscape:version="0.92.4 (5da689c313, 2019-01-14)"><metadata
   id="metadata24"><rdf:RDF><cc:Work
       rdf:about=""><dc:format>image/svg+xml</dc:format><dc:type
         rdf:resource="http://purl.org/dc/dcmitype/StillImage" /><dc:title></dc:title></cc:Work></rdf:RDF></metadata><defs
   id="defs22" /><sodipodi:namedview
   pagecolor="#ffffff"
   bordercolor="#666666"
   borderopacity="1"
   objecttolerance="10"
   gridtolerance="10"
   guidetolerance="10"
   inkscape:pageopacity="0"
   inkscape:pageshadow="2"
   inkscape:window-width="1850"
   inkscape:window-height="1016"
   id="namedview20"
   showgrid="false"
   inkscape:zoom="1.3350176"
   inkscape:cx="67.600376"
   inkscape:cy="68.53118"
   inkscape:window-x="70"
   inkscape:window-y="27"
   inkscape:window-maximized="1"
   inkscape:current-layer="svg18" />
<g
   id="Logo_artwork"
   transform="translate(0,-1744)">
</g>
<g
   id="Guides_to_delete"
   transform="matrix(0.14253644,0,0,0.14253644,-29.73695,-14.5364)">
	<g
   id="g15">
		<polygon
   points="1791.373,101.984 1647.093,1718.528 999.615,1898.016 352.732,1718.4 208.627,101.984 "
   id="polygon3"
   style="fill:#e34e26" />
		<polygon
   points="1646.918,234.108 1000,234.108 1000,1760.716 1523.565,1615.585 "
   id="polygon5"
   style="fill:#ef662a" />
		<polygon
   points="565.155,1124.017 593.611,1442.302 999.697,1555.086 1406.296,1442.302 1460.806,833.669 738.229,833.669 720.086,630.648 1478.168,630.648 1478.773,630.648 1496.532,432.378 503.468,432.378 556.906,1031.897 1244.048,1031.897 1220.988,1289.041 999.744,1348.857 778.919,1289.128 764.155,1124.017 "
   id="polygon7"
   style="fill:#ffffff" />
		<g
   id="g13">
			<polygon
   points="1000,630.648 1000,432.378 503.468,432.378 556.906,1031.897 1000,1031.897 1000,833.669 738.229,833.669 720.086,630.648 "
   id="polygon9"
   style="fill:#ebebeb" />
			<polygon
   points="1000,1555.001 1000,1348.771 999.744,1348.857 778.919,1289.128 764.155,1124.017 565.155,1124.017 593.611,1442.302 999.697,1555.086 "
   id="polygon11"
   style="fill:#ebebeb" />
		</g>
	</g>
</g>
</svg>