<?xml version="1.0" encoding="UTF-8" standalone="no"?>
<svg
   xmlns:dc="http://purl.org/dc/elements/1.1/"
   xmlns:cc="http://creativecommons.org/ns#"
   xmlns:rdf="http://www.w3.org/1999/02/22-rdf-syntax-ns#"
   xmlns:svg="http://www.w3.org/2000/svg"
   xmlns="http://www.w3.org/2000/svg"
   id="svg18"
   version="1.1"
   viewBox="0 0 258.7234 264.25806"
   height="256"
   width="256">
  <metadata
     id="metadata24">
    <rdf:RDF>
      <cc:Work
         rdf:about="">
        <dc:format>image/svg+xml</dc:format>
        <dc:type
           rdf:resource="http://purl.org/dc/dcmitype/StillImage" />
        <dc:title></dc:title>
      </cc:Work>
    </rdf:RDF>
  </metadata>
  <defs
     id="defs22" />
  <g
     transform="matrix(8.3142418,0,0,8.3142418,-3.1268648,-0.53930879)"
     id="icon"
     style="fill:#3880ff;fill-opacity:1;fill-rule:nonzero">
    <path
       d="m 15.956757,8.7567568 c -4,0 -7.2432435,3.2432432 -7.2432435,7.2432432 0,4 3.2432435,7.243243 7.2432435,7.243243 C 19.956757,23.243243 23.2,20 23.2,16 23.178378,12 19.935135,8.7567568 15.956757,8.7567568 Z"
       id="Shape"
       style="fill:#3880ff;fill-opacity:1" />
    <circle
       id="Oval"
       cx="26.335135"
       cy="6.0972972"
       r="3.3081081"
       style="fill:#3880ff;fill-opacity:1" />
    <path
       d="M 30.4,9.4054054 30.27027,9.1027027 30.054054,9.3621622 c -0.540541,0.6054054 -1.232432,1.0810808 -1.989189,1.3621618 l -0.216216,0.08649 0.08649,0.216216 c 0.67027,1.578378 0.994595,3.264865 0.994595,4.972973 0,7.156757 -5.816217,12.994595 -12.994595,12.994595 C 8.7567568,28.994595 2.9621622,23.156757 2.9621622,16 c 0,-7.1567568 5.8162162,-12.9945946 12.9945948,-12.9945946 1.945946,0 3.805405,0.4324324 5.556756,1.2540541 l 0.194595,0.086486 0.08649,-0.2162162 C 22.118919,3.372973 22.616216,2.7243243 23.264865,2.2054054 L 23.524324,1.9891892 23.221622,1.8378378 C 20.951351,0.67027027 18.508108,0.06486486 15.935135,0.06486486 7.1783784,0.06486486 0.04324324,7.2 0.04324324,15.956757 c 0,8.756756 7.13513516,15.891892 15.89189176,15.891892 8.756757,0 15.891892,-7.135136 15.891892,-15.891892 0,-2.248649 -0.475676,-4.454054 -1.427027,-6.5513516 z"
       id="path4"
       style="fill:#3880ff;fill-opacity:1" />
  </g>
</svg>
