<?xml version="1.0" encoding="UTF-8" standalone="no"?>
<svg
   xmlns:dc="http://purl.org/dc/elements/1.1/"
   xmlns:cc="http://creativecommons.org/ns#"
   xmlns:rdf="http://www.w3.org/1999/02/22-rdf-syntax-ns#"
   xmlns:svg="http://www.w3.org/2000/svg"
   xmlns="http://www.w3.org/2000/svg"
   xmlns:sodipodi="http://sodipodi.sourceforge.net/DTD/sodipodi-0.dtd"
   xmlns:inkscape="http://www.inkscape.org/namespaces/inkscape"
   viewBox="0 0 256 256"
   height="256"
   width="256"
   xml:space="preserve"
   id="svg2"
   version="1.1"
   sodipodi:docname="javascript.svg"
   inkscape:version="0.92.4 (5da689c313, 2019-01-14)"><sodipodi:namedview
     pagecolor="#ffffff"
     bordercolor="#666666"
     borderopacity="1"
     objecttolerance="10"
     gridtolerance="10"
     guidetolerance="10"
     inkscape:pageopacity="0"
     inkscape:pageshadow="2"
     inkscape:window-width="1850"
     inkscape:window-height="1016"
     id="namedview9"
     showgrid="false"
     inkscape:zoom="0.79665139"
     inkscape:cx="148.12"
     inkscape:cy="148.12"
     inkscape:window-x="70"
     inkscape:window-y="27"
     inkscape:window-maximized="1"
     inkscape:current-layer="svg2" /><metadata
     id="metadata8"><rdf:RDF><cc:Work
         rdf:about=""><dc:format>image/svg+xml</dc:format><dc:type
           rdf:resource="http://purl.org/dc/dcmitype/StillImage" /><dc:title></dc:title></cc:Work></rdf:RDF></metadata><defs
     id="defs6" /><g
     transform="matrix(1.1522397,0,0,-1.1522397,3.6202791e-4,255.99966)"
     id="g10"><g
       transform="translate(0.00199912,-378.90999)"
       id="g863"><path
         id="path14"
         style="fill:#eee00c;fill-opacity:1;fill-rule:nonzero;stroke:none;stroke-width:0.1"
         d="M 0,601.088 H 222.176 V 378.912 H 0 v 222.176"
         inkscape:connector-curvature="0" /><path
         id="path16"
         style="fill:#100f0d;fill-opacity:1;fill-rule:nonzero;stroke:none;stroke-width:0.1"
         d="m 75.4941,425.703 c 3.2797,-5.819 6.2633,-10.739 13.4364,-10.739 6.859,0 11.1865,2.684 11.1865,13.119 v 70.991 h 20.877 v -71.273 c 0,-21.618 -12.674,-31.457 -31.1749,-31.457 -16.716,0 -26.3964,8.651 -31.3199,19.07 z m 73.7519,1.809 c 4.475,-7.307 10.298,-12.678 20.595,-12.678 8.651,0 14.177,4.324 14.177,10.298 0,7.159 -5.678,9.694 -15.199,13.859 l -5.22,2.24 c -15.065,6.418 -25.074,14.459 -25.074,31.457 0,15.658 11.931,27.578 30.576,27.578 13.274,0 22.817,-4.62 29.694,-16.716 l -16.258,-10.439 c -3.579,6.418 -7.441,8.947 -13.436,8.947 -6.115,0 -9.991,-3.879 -9.991,-8.947 0,-6.263 3.879,-8.799 12.837,-12.678 l 5.219,-2.236 c 17.739,-7.607 27.754,-15.362 27.754,-32.797 0,-18.797 -14.765,-29.095 -34.596,-29.095 -19.389,0 -31.915,9.24 -38.045,21.35 l 16.967,9.857"
         inkscape:connector-curvature="0" /></g></g></svg>