<?xml version="1.0" encoding="UTF-8" standalone="no"?>
<svg
   xmlns:dc="http://purl.org/dc/elements/1.1/"
   xmlns:cc="http://creativecommons.org/ns#"
   xmlns:rdf="http://www.w3.org/1999/02/22-rdf-syntax-ns#"
   xmlns:svg="http://www.w3.org/2000/svg"
   xmlns="http://www.w3.org/2000/svg"
   id="svg4"
   version="1.1"
   viewBox="0 0 374.00001 256.00001"
   height="256"
   width="374">
  <metadata
     id="metadata10">
    <rdf:RDF>
      <cc:Work
         rdf:about="">
        <dc:format>image/svg+xml</dc:format>
        <dc:type
           rdf:resource="http://purl.org/dc/dcmitype/StillImage" />
        <dc:title></dc:title>
      </cc:Work>
    </rdf:RDF>
  </metadata>
  <defs
     id="defs8" />
  <path
     style="fill:#fb503b;stroke-width:4.44420147"
     id="path2"
     d="m 372.3991,119.6144 c -2.66652,-2.66652 -36.88687,-45.775265 -42.66433,-52.885995 -6.22188,-7.11072 -8.8884,-5.77746 -12.88819,-5.33304 -3.99978,0.44442 -47.10853,7.99957 -51.99715,8.44399 -4.88862,0.88884 -7.99956,2.66652 -4.88862,7.11072 2.66652,3.99978 31.10941,43.997585 37.33129,53.330415 L 183.96496,157.39011 94.192096,6.731694 C 90.636735,1.398644 89.747895,-0.37903596 81.748332,0.06538404 73.74877,0.50980404 11.08553,5.842854 6.6413286,5.842854 2.1971272,6.287274 -2.6914943,8.064954 1.7527071,18.731035 6.1969085,29.397115 77.304131,182.27764 79.081811,186.72184 c 1.777681,4.4442 7.110723,11.55493 19.110066,8.88841 12.443763,-3.11094 55.108093,-14.22145 78.662363,-20.44333 12.44376,22.22101 37.33129,67.55186 42.21991,74.21816 6.22189,8.88841 10.66609,7.11072 19.99891,4.4442 7.55514,-2.2221 116.43808,-41.33107 121.3267,-43.55317 4.88862,-2.2221 7.99956,-3.55536 4.4442,-8.44398 -2.66652,-3.55536 -31.10941,-42.21992 -46.2197,-62.21882 10.22167,-2.66652 47.10854,-12.44377 51.10832,-13.77703 4.4442,-1.33326 5.33304,-3.55536 2.66652,-6.22188 z m -205.76652,42.21992 c -1.33326,0.44442 -64.88534,15.5547 -67.996283,16.44354 -3.555361,0.88884 -3.555361,0.44442 -3.555361,-0.88884 -0.88884,-1.33326 -75.551423,-155.991465 -76.884683,-157.769145 -0.888841,-1.77768 -0.888841,-3.55536 0,-3.55536 0.88884,0 59.996718,-5.33304 61.774399,-5.33304 2.2221,0 1.77768,0.44442 2.66652,1.77768 0,0 83.106568,143.547695 84.439828,145.769795 1.77768,2.22211 0.88884,3.11095 -0.44442,3.55537 z m 178.65689,33.33151 c 0.88884,1.77768 2.2221,2.66652 -1.33326,3.55536 -3.11094,1.33326 -107.10525,36.44245 -109.32735,37.33129 -2.2221,0.88884 -3.55536,1.33326 -6.22188,-2.66652 -2.66652,-3.99978 -36.44245,-62.21882 -36.44245,-62.21882 l 110.66061,-28.88731 c 2.66652,-0.88884 3.55536,-1.33326 5.33304,1.33326 1.77768,3.11094 36.44245,50.21948 37.33129,51.55274 z m 7.11073,-78.21795 c -2.66653,0.44442 -43.10876,10.66609 -43.10876,10.66609 L 275.95993,82.283115 c -0.88884,-1.33326 -1.77768,-2.66652 0.44442,-3.11094 2.2221,-0.44442 39.99781,-7.11072 41.77549,-7.55514 1.77769,-0.44442 3.11095,-0.88884 5.33305,2.2221 2.2221,2.66652 30.66499,39.108965 31.99825,40.442225 1.33326,1.33326 -0.44442,2.2221 -3.11094,2.66652 z" />
</svg>
