<?xml version="1.0" encoding="UTF-8" standalone="no"?>
<svg
   xmlns:dc="http://purl.org/dc/elements/1.1/"
   xmlns:cc="http://creativecommons.org/ns#"
   xmlns:rdf="http://www.w3.org/1999/02/22-rdf-syntax-ns#"
   xmlns:svg="http://www.w3.org/2000/svg"
   xmlns="http://www.w3.org/2000/svg"
   viewBox="0 0 261.00001 256"
   height="256"
   width="261"
   xml:space="preserve"
   id="svg2"
   version="1.1"><metadata
     id="metadata8"><rdf:RDF><cc:Work
         rdf:about=""><dc:format>image/svg+xml</dc:format><dc:type
           rdf:resource="http://purl.org/dc/dcmitype/StillImage" /><dc:title></dc:title></cc:Work></rdf:RDF></metadata><defs
     id="defs6" /><g
     transform="matrix(1.4171019,0,0,1.4171019,-437.87605,1.7437297e-5)"
     id="g831"><path
       d="m 478.50543,139.72169 c -10.0121,-0.25107 -17.77154,0.75042 -24.28261,3.50437 -1.87674,0.7507 -4.88121,0.7507 -5.13089,3.12848 1.00149,1.00176 1.12773,2.62883 2.00298,4.00539 1.50082,2.50373 4.13219,5.88327 6.50827,7.63546 2.62858,2.00213 5.25713,4.00539 8.01192,5.75757 4.88121,3.00475 10.38802,4.75582 15.14299,7.76056 2.75479,1.75107 5.50678,4.00512 8.26157,5.88243 1.37741,1.00149 2.25266,2.62884 4.00596,3.25442 0,-0.12477 0,-0.2508 0,-0.37592 -0.87525,-1.12632 -1.12773,-2.75367 -2.00298,-4.00512 -1.25114,-1.25144 -2.50231,-2.37803 -3.75628,-3.63031 -3.62724,-4.88094 -8.13536,-9.13712 -13.01657,-12.6415 -4.00596,-2.75367 -12.76689,-6.508 -14.39395,-11.1401 0,0 -0.12624,-0.12371 -0.24968,-0.24883 2.75199,-0.2508 6.00894,-1.25229 8.63751,-2.00298 4.25562,-1.12662 8.13534,-0.87666 12.51442,-2.00326 2.00298,-0.50074 4.00596,-1.12634 6.00894,-1.75218 0,-0.3748 0,-0.7507 0,-1.12662 -2.25266,-2.25293 -3.87972,-5.25655 -6.25862,-7.38436 -6.38204,-5.50681 -13.39246,-10.89015 -20.65257,-15.39547 -3.87972,-2.50231 -8.88717,-4.13219 -13.01657,-6.25859 -1.50082,-0.75184 -4.00596,-1.12493 -4.88121,-2.3761 -2.25264,-2.75479 -3.5038,-6.38483 -5.13087,-9.63898 -3.63006,-6.884192 -7.13666,-14.520193 -10.26457,-21.777493 -2.25266,-4.884015 -3.63005,-9.765226 -6.38204,-14.270527 -12.89313,-21.278152 -26.91119,-34.171279 -48.44181,-46.811931 -4.62873,-2.628561 -10.13552,-3.753483 -16.02103,-5.130883 -3.12789,-0.126238 -6.2558,-0.37591 -9.38651,-0.502148 -2.00298,-0.875251 -4.00316,-3.2541388 -5.75646,-4.3790622 -7.13387,-4.5081052 -25.53378,-14.2705264 -30.79091,-1.3773977 -3.38036,8.1353499 5.00745,16.1472679 7.88568,20.2766609 2.12642,2.878231 4.88121,6.13237 6.38485,9.386511 0.87526,2.129218 1.12493,4.381867 2.00019,6.634518 2.00298,5.506791 3.87972,11.639163 6.51107,16.77285 1.37461,2.628559 2.87823,5.380552 4.62873,7.759442 1.00149,1.377397 2.75481,2.002979 3.13071,4.255628 -1.7533,2.502324 -1.87954,6.258611 -2.88103,9.386514 -4.50529,14.144294 -2.75199,31.668958 3.63004,42.056948 2.00298,3.12791 6.76077,10.0121 13.14281,7.38355 5.63302,-2.25266 4.38188,-9.38653 6.00894,-15.64512 0.37592,-1.50085 0.12624,-2.50234 0.87525,-3.50383 0,0.1235 0,0.24968 0,0.24968 1.7533,3.5038 3.5038,6.88419 5.13089,10.38799 3.88252,6.13518 10.64047,12.51724 16.27069,16.77315 3.00727,2.25293 5.38337,6.13208 9.13965,7.50976 0,-0.12518 0,-0.24995 0,-0.37591 -0.12624,0 -0.12624,0 -0.25248,0 -0.75181,-1.1266 -1.87674,-1.62734 -2.87823,-2.50289 -2.25265,-2.25293 -4.75497,-5.00688 -6.50827,-7.51088 -5.25713,-7.00904 -9.88866,-14.76848 -14.01806,-22.7804 -2.00298,-3.87972 -3.75628,-8.13533 -5.38055,-12.01505 -0.75183,-1.503648 -0.75183,-3.753486 -2.00297,-4.505319 -1.87957,2.751993 -4.63156,5.130889 -6.00894,8.511279 -2.3789,5.38334 -2.62858,12.01505 -3.50383,18.89924 -0.50213,0.12624 -0.24966,0 -0.50213,0.24968 -4.00596,-1.00149 -5.38057,-5.13089 -6.88419,-8.63469 -3.75349,-8.88717 -4.38188,-23.154887 -1.12493,-33.41946 0.87525,-2.628562 4.63153,-10.89015 3.12791,-13.392473 -0.75184,-2.378887 -3.25415,-3.756287 -4.63156,-5.633028 -1.62706,-2.378888 -3.38036,-5.380552 -4.50529,-8.011918 -3.00447,-7.007622 -4.5053,-14.767064 -7.75944,-21.777492 -1.50365,-3.254141 -4.1294,-6.634519 -6.25862,-9.636183 -2.37887,-3.38038 -5.00745,-5.759267 -6.88419,-9.765226 -0.62557,-1.3774 -1.50082,-3.627245 -0.49933,-5.1308826 0.24967,-1.0014898 0.74901,-1.3745931 1.7505,-1.6270695 1.62706,-1.3773998 6.25861,0.37591 7.88568,1.1277279 4.63153,1.8767412 8.51125,3.6272442 12.39097,6.2586082 1.75332,1.251162 3.63007,3.627245 5.8827,4.252826 0.87525,0 1.75333,0 2.62858,0 4.00596,0.878057 8.51125,0.252477 12.26753,1.377398 6.63171,2.129218 12.64065,5.257121 18.02402,8.6375 16.39413,10.388001 29.91284,25.157871 39.04968,42.80597 1.50083,2.878231 2.1264,5.506793 3.50381,8.511262 2.62855,6.132377 5.8855,12.390972 8.51125,18.399911 2.62858,5.882699 5.13369,11.891639 8.88717,16.772849 1.87956,2.62576 9.38933,4.00316 12.76689,5.38057 2.50234,1.12773 6.38486,2.12922 8.63751,3.5038 4.25562,2.62855 8.51126,5.63302 12.51442,8.51126 2.00298,1.50364 8.26157,4.63182 8.63749,7.13582"
       style="fill:#005c87;fill-opacity:1;fill-rule:evenodd;stroke:none;stroke-width:0.28052932"
       id="path20" /><path
       d="m 350.83934,30.952897 c -2.12921,0 -3.63006,0.249672 -5.13368,0.625582 0,0 0,0.126238 0,0.24967 0.12623,0 0.12623,0 0.24965,0 1.00149,2.002979 2.75482,3.380379 4.00596,5.130882 1.00149,2.00298 1.87674,4.005959 2.87823,6.008939 0.12624,-0.12344 0.24968,-0.249672 0.24968,-0.249672 1.7533,-1.251161 2.62856,-3.254141 2.62856,-6.258608 -0.74902,-0.875252 -0.87526,-1.75331 -1.50083,-2.628562 -0.74901,-1.251159 -2.3789,-1.876741 -3.37757,-2.878231"
       style="fill:#005c87;fill-opacity:1;fill-rule:evenodd;stroke:none;stroke-width:0.28052932"
       id="path22" /></g></svg>