<?xml version="1.0" encoding="UTF-8" standalone="no"?>
<svg
   xmlns:dc="http://purl.org/dc/elements/1.1/"
   xmlns:cc="http://creativecommons.org/ns#"
   xmlns:rdf="http://www.w3.org/1999/02/22-rdf-syntax-ns#"
   xmlns:svg="http://www.w3.org/2000/svg"
   xmlns="http://www.w3.org/2000/svg"
   xmlns:xlink="http://www.w3.org/1999/xlink"
   xml:space="preserve"
   viewBox="0 0 256.00001 256"
   height="256"
   width="256"
   y="0px"
   x="0px"
   id="Layer_1"
   version="1.1"><metadata
   id="metadata55"><rdf:RDF><cc:Work
       rdf:about=""><dc:format>image/svg+xml</dc:format><dc:type
         rdf:resource="http://purl.org/dc/dcmitype/StillImage" /><dc:title>wporg-logo</dc:title></cc:Work></rdf:RDF></metadata><defs
   id="defs53">
	

		<defs
   id="defs7">
			<rect
   height="400"
   width="1460"
   y="-100"
   x="-101"
   id="SVGID_1_" />
		</defs>
		<clipPath
   id="SVGID_2_">
			<use
   height="100%"
   width="100%"
   y="0"
   x="0"
   id="use9"
   style="overflow:visible"
   xlink:href="#SVGID_1_" />
		</clipPath>
		
	
			
		
				
			
					
				
						
						
						
						
						
						
						
						
						
						
						
						
						
					</defs>
<style
   id="style2"
   type="text/css">
	.st0{clip-path:url(#SVGID_2_);}
	.st1{fill:#D7DADE;}
</style>
<title
   id="title4">wporg-logo</title>
<g
   transform="scale(1.28)"
   id="g965"><path
     class="st1"
     d="m 100,6 c 18.8,0 37.1,5.6 52.6,16.1 15.1,10.2 27,24.6 34.1,41.4 12.4,29.3 9.1,62.8 -8.7,89.1 -10.2,15.1 -24.6,27 -41.4,34.1 C 107.3,199.1 73.8,195.8 47.5,178 32.4,167.8 20.5,153.4 13.4,136.6 1,107.3 4.3,73.8 22.1,47.5 32.3,32.4 46.7,20.5 63.5,13.4 75,8.5 87.5,6 100,6 m 0,-6 C 44.8,0 0,44.8 0,100 0,155.2 44.8,200 100,200 155.2,200 200,155.2 200,100 200,44.8 155.2,0 100,0"
     id="path12"
     style="fill:#0073aa;fill-opacity:1" /><path
     class="st1"
     d="m 16.7,100 c 0,31.9 18.2,61.1 47,75 L 23.9,66.1 C 19.1,76.8 16.7,88.3 16.7,100 m 139.6,-4.2 c 0,-10.3 -3.7,-17.4 -6.9,-23 -3.2,-5.6 -8.2,-12.7 -8.2,-19.5 0,-6.8 5.8,-14.8 14,-14.8 h 1.1 C 122.4,7.4 69.7,9.7 38.6,43.7 c -3,3.3 -5.8,6.8 -8.2,10.5 h 5.4 c 8.7,0 22.2,-1.1 22.2,-1.1 4.5,-0.3 5,6.3 0.5,6.9 0,0 -4.5,0.5 -9.5,0.8 L 79.3,151.1 97.5,96.4 84.5,60.8 C 80,60.5 75.8,60 75.8,60 c -4.5,-0.3 -4,-7.1 0.5,-6.9 0,0 13.8,1.1 21.9,1.1 8.1,0 22.2,-1.1 22.2,-1.1 4.5,-0.3 5,6.3 0.5,6.9 0,0 -4.5,0.5 -9.5,0.8 l 30.1,89.6 8.6,-27.2 c 3.8,-11.9 6.1,-20.3 6.1,-27.5 m -54.8,11.5 -25,72.7 c 16.8,4.9 34.7,4.5 51.2,-1.3 L 127,177.5 Z M 173.1,60 c 0.4,2.8 0.6,5.7 0.6,8.6 0,8.5 -1.6,18 -6.3,29.8 L 141.9,172 c 39,-22.7 52.9,-72.4 31.2,-112"
     id="path14"
     style="fill:#0073aa;fill-opacity:1" /></g>
</svg>